<svg xmlns="http://www.w3.org/2000/svg" viewBox="0 0 100 100">
  <circle cx="35.937" cy="15.909" r="1.495"/>
  <path d="M71.925 46.632l-.104-.218a26.321 26.321 0 00-1.289-2.75L55.88 13.826c-1.926-4.445-5.579-7.854-10.059-9.43a17.087 17.087 0 00-5.677-.975c-6.422 0-12.238 3.613-15.155 9.195l-13.905 3.449 12.146 6.876c.65 4.492 3.061 8.684 6.883 11.449l1.786 1.292-1.611 1.503a25.492 25.492 0 00-6.711 10.272C18.858 60.869 25.93 75.62 39.341 80.339a25.766 25.766 0 0011.318 1.318c.188-.014 8.864-.708 19.281-6.7a33.65 33.65 0 01-4.889.366c-6.474 0-13.942-1.984-20.463-8.822-15.354-16.1-5.396-31.943-5.293-32.101l3.044 1.971c-.349.546-8.458 13.647 4.873 27.625 12.719 13.335 29.641 5.576 31.871 4.464 3.287-2.838 6.558-6.278 9.625-10.456-4.37-1.093-12.635-4.053-16.783-11.372zM23.146 18.725l-2.352-1.331 2.687-.666a17.087 17.087 0 00-.335 1.997zm12.791 2.307a5.128 5.128 0 01-5.123-5.122 5.13 5.13 0 015.123-5.124 5.13 5.13 0 015.124 5.124 5.13 5.13 0 01-5.124 5.122zM48.054 83.312v10.891h-8.816v3.63h19.707v-3.63h-7.26V83.312z"/>
</svg>