<svg xmlns="http://www.w3.org/2000/svg" viewBox="0 0 100 100">
  <path d="M81.786 28.854c-2.182-3.27-5.267-5.248-8.921-5.721-7.475-.967-10.653 2.4-11.893 4.51-.832-.34-1.699-.637-2.6-.888 1.516-6.6.744-12.685-2.149-16.495-1.63-2.146-3.84-3.328-6.223-3.328s-4.593 1.182-6.223 3.328c-2.893 3.81-3.665 9.895-2.15 16.495-.9.251-1.767.547-2.6.888-1.238-2.11-4.416-5.474-11.892-4.51-3.654.473-6.739 2.451-8.92 5.721-3.994 5.984-4.456 15.45-2.863 21.317a1.5 1.5 0 002.72.402c.031-.05 2.758-4.298 7.808-6.863-1.22 4.308-1.838 9.376-1.838 15.213 0 3.908.409 7.56 1.175 10.911-2.243 1.88-9.665 9.142-8.248 21.9a1.5 1.5 0 002.458.98c.069-.057 6.673-5.558 14.173-7.061 4.32 4.165 9.913 6.504 16.4 6.504s12.08-2.34 16.4-6.504c7.48 1.5 14.105 7.004 14.173 7.062a1.503 1.503 0 001.523.245 1.5 1.5 0 00.935-1.227c1.417-12.757-6.005-20.018-8.248-21.899.766-3.352 1.175-7.003 1.175-10.91 0-5.838-.618-10.906-1.838-15.214 5.05 2.565 7.777 6.813 7.807 6.86a1.5 1.5 0 002.72-.399c1.594-5.868 1.132-15.333-2.861-21.317zM70.286 41.4c.033.173.093.338.182.488 1.493 4.009 2.305 8.956 2.46 14.885-4.094.73-8 .751-9.9.703-.726-3.03-3.398-6.73-5.241-8.825 1.457-2.106 4.876-7.323 8.087-14.292 1.832 1.87 3.299 4.213 4.412 7.04zm-4.27 40.39a139.837 139.837 0 01-8.308-12.512c1.714-1.955 4.491-5.713 5.286-8.799.383.01.827.018 1.339.018 2.124 0 5.266-.127 8.611-.684-.15 9.29-2.638 16.858-6.928 21.978zm-32.032 0c-4.29-5.12-6.778-12.687-6.928-21.977 3.346.557 6.487.684 8.611.684.503 0 .94-.008 1.319-.017.773 3.203 3.592 6.887 5.303 8.804a139.84 139.84 0 01-8.305 12.507zm-4.452-39.902c.089-.15.15-.315.182-.489 1.114-2.827 2.58-5.17 4.412-7.04 3.21 6.969 6.63 12.187 8.087 14.292-1.843 2.096-4.515 5.795-5.24 8.825-1.901.048-5.806.028-9.9-.703.154-5.929.966-10.876 2.459-14.885zm15.67 26.121c-2.214-2.215-5.418-6.724-5.418-9.086 0-2.238 3.21-6.876 5.419-9.085.492-.492 2.334-1.02 4.778-1.027h.057c2.45 0 4.247.514 4.76 1.027 2.157 2.157 5.418 6.88 5.418 9.085 0 2.275-3.508 7.176-5.419 9.086-1.264 1.264-8.084 1.511-9.594 0zm10.244-21.255c-1.859-.835-4.303-.945-5.474-.943-1.152.003-3.576.125-5.416.946-1.514-2.213-4.952-7.541-8.047-14.415.697-.49 1.43-.934 2.206-1.324.14-.042.27-.104.387-.181C42.138 29.401 45.76 28.69 50 28.69s7.862.71 10.898 2.147c.117.077.246.139.387.181.777.39 1.51.835 2.206 1.324-3.093 6.871-6.53 12.198-8.045 14.412zm-9.28-34.68c.743-.977 2.01-2.142 3.834-2.142s3.091 1.165 3.834 2.143c1.846 2.43 3.162 7.338 1.61 14.04-1.711-.278-3.522-.425-5.444-.425s-3.733.147-5.443.425c-1.553-6.702-.237-11.61 1.609-14.04zm-28.498 34.19c-.58-5.12.272-11.594 3.041-15.744 1.711-2.564 4.003-4.048 6.811-4.412 5.665-.733 7.96 1.472 8.83 2.847-4.053 2.37-7.108 6.028-9.162 10.958-4.413 1.521-7.608 4.268-9.52 6.351zm8.436 26.822c1.23 3.856 2.983 7.231 5.19 10.024-4.811 1.31-9.031 3.86-11.502 5.58-.036-8.177 4.037-13.35 6.312-15.604zm9.99 10.889a141.662 141.662 0 008.58-12.823c1.417.622 3.276.918 5.15.918 2.013 0 4.017-.34 5.483-.951a141.532 141.532 0 008.6 12.856c-3.71 3.341-8.425 5.182-13.907 5.182s-10.197-1.84-13.906-5.182zm44.114 4.715c-2.47-1.72-6.69-4.27-11.502-5.58 2.207-2.793 3.96-6.168 5.19-10.024 2.275 2.253 6.348 7.427 6.312 15.604zm2.124-42.426c-1.912-2.083-5.107-4.83-9.52-6.351-2.055-4.932-5.112-8.592-9.167-10.961.86-1.369 3.15-3.583 8.835-2.844 2.808.364 5.1 1.848 6.81 4.412 2.77 4.15 3.622 10.625 3.042 15.744z"/>
</svg>